<svg width="144" height="114" viewBox="0 0 144 114" fill="none" xmlns="http://www.w3.org/2000/svg">
<path d="M129 57C129 88.4802 103.48 114 72 114C40.5198 114 15 88.4802 15 57C15 25.5198 40.5198 0 72 0C103.48 0 129 25.5198 129 57ZM36.6518 57C36.6518 76.5223 52.4777 92.3482 72 92.3482C91.5223 92.3482 107.348 76.5223 107.348 57C107.348 37.4777 91.5223 21.6518 72 21.6518C52.4777 21.6518 36.6518 37.4777 36.6518 57Z" fill="#D9EAE8"/>
<rect y="40" width="144" height="35" rx="5" fill="url(#paint0_linear_179_1281)"/>
<path d="M12.458 64V50.986H17.246C18.194 50.986 19.043 51.151 19.793 51.481C20.543 51.805 21.134 52.285 21.566 52.921C22.004 53.557 22.223 54.334 22.223 55.252C22.223 56.116 22.031 56.854 21.647 57.466C21.263 58.078 20.723 58.546 20.027 58.87C19.337 59.194 18.524 59.356 17.588 59.356H15.104V64H12.458ZM15.077 57.322H17.516C18.176 57.322 18.716 57.112 19.136 56.692C19.556 56.266 19.766 55.741 19.766 55.117C19.766 54.469 19.544 53.956 19.1 53.578C18.656 53.194 18.116 53.002 17.48 53.002H15.077V57.322ZM24.2002 64V50.986H29.6902C30.7282 50.986 31.5772 51.151 32.2372 51.481C32.8972 51.811 33.3832 52.27 33.6952 52.858C34.0072 53.44 34.1632 54.112 34.1632 54.874C34.1632 55.558 34.0552 56.137 33.8392 56.611C33.6292 57.079 33.3502 57.469 33.0022 57.781C32.6602 58.093 32.2852 58.348 31.8772 58.546L34.2982 64H31.5712L29.4562 58.987H26.8192V64H24.2002ZM26.8192 56.962H29.2222C29.9242 56.962 30.4792 56.773 30.8872 56.395C31.3012 56.017 31.5082 55.531 31.5082 54.937C31.5082 54.337 31.3102 53.863 30.9142 53.515C30.5182 53.167 30.0172 52.993 29.4112 52.993H26.8192V56.962ZM36.7334 64V50.986H39.3524V64H36.7334ZM45.6545 64L41.1545 50.986H43.6655L47.1485 60.949L50.6135 50.986H53.1335L48.6335 64H45.6545ZM51.9774 64L56.6304 50.986H59.4114L64.0644 64H61.4454L60.3834 60.985H55.6944L54.6144 64H51.9774ZM56.2884 58.69H59.7444L58.0254 53.515L56.2884 58.69ZM67.2887 64V53.326H63.3557V50.986H73.7687V53.326H69.9257V64H67.2887ZM75.5635 64V50.986H84.5005L84.4915 53.2H78.2005V56.359H83.6635V58.528H78.1825V61.759L84.5905 61.768V64H75.5635ZM91.0498 64V50.986H93.6688V56.206H99.3658V50.986H101.994V64H99.3658V58.411H93.6688V64H91.0498ZM104.901 64V50.986H107.52V64H104.901ZM110.438 64V50.986H115.928C116.966 50.986 117.815 51.151 118.475 51.481C119.135 51.811 119.621 52.27 119.933 52.858C120.245 53.44 120.401 54.112 120.401 54.874C120.401 55.558 120.293 56.137 120.077 56.611C119.867 57.079 119.588 57.469 119.24 57.781C118.898 58.093 118.523 58.348 118.115 58.546L120.536 64H117.809L115.694 58.987H113.057V64H110.438ZM113.057 56.962H115.46C116.162 56.962 116.717 56.773 117.125 56.395C117.539 56.017 117.746 55.531 117.746 54.937C117.746 54.337 117.548 53.863 117.152 53.515C116.756 53.167 116.255 52.993 115.649 52.993H113.057V56.962ZM122.972 64V50.986H131.909L131.9 53.2H125.609V56.359H131.072V58.528H125.591V61.759L131.999 61.768V64H122.972Z" fill="white"/>
<defs>
<linearGradient id="paint0_linear_179_1281" x1="72" y1="40" x2="72" y2="75" gradientUnits="userSpaceOnUse">
<stop stop-color="#00A691"/>
<stop offset="1" stop-color="#007465"/>
</linearGradient>
</defs>
</svg>
