<svg width="25" height="24" viewBox="0 0 25 24" fill="none" xmlns="http://www.w3.org/2000/svg">
<path d="M22.4004 16.7397V4.6697C22.4004 3.4697 21.4204 2.5797 20.2304 2.6797H20.1704C18.0704 2.8597 14.8804 3.9297 13.1004 5.0497L12.9304 5.1597C12.6404 5.3397 12.1604 5.3397 11.8704 5.1597L11.6204 5.0097C9.84039 3.8997 6.66039 2.8397 4.56039 2.6697C3.37039 2.5697 2.40039 3.4697 2.40039 4.6597V16.7397C2.40039 17.6997 3.18039 18.5997 4.14039 18.7197L4.43039 18.7597C6.60039 19.0497 9.95039 20.1497 11.8704 21.1997L11.9104 21.2197C12.1804 21.3697 12.6104 21.3697 12.8704 21.2197C14.7904 20.1597 18.1504 19.0497 20.3304 18.7597L20.6604 18.7197C21.6204 18.5997 22.4004 17.6997 22.4004 16.7397Z" stroke="#A2A2A2" stroke-width="1.5" stroke-linecap="round" stroke-linejoin="round"/>
<path d="M12.4004 5.49023V20.4902" stroke="#A2A2A2" stroke-width="1.5" stroke-linecap="round" stroke-linejoin="round"/>
<path d="M8.15039 8.49023H5.90039" stroke="#A2A2A2" stroke-width="1.5" stroke-linecap="round" stroke-linejoin="round"/>
<path d="M8.90039 11.4902H5.90039" stroke="#A2A2A2" stroke-width="1.5" stroke-linecap="round" stroke-linejoin="round"/>
</svg>
