<svg width="25" height="24" viewBox="0 0 25 24" fill="none" xmlns="http://www.w3.org/2000/svg">
<path d="M12 22L2.6797 10.3496C2.34718 9.93398 2.18092 9.72615 2.13625 9.4757C2.09159 9.22524 2.17575 8.97276 2.34407 8.46778L3.5883 4.73509C4.02832 3.41505 4.24832 2.75503 4.7721 2.37752C5.29587 2 5.99159 2 7.38304 2H16.617C18.0084 2 18.7041 2 19.2279 2.37752C19.7517 2.75503 19.9717 3.41505 20.4117 4.73509L21.6559 8.46778C21.8243 8.97276 21.9084 9.22524 21.8637 9.4757C21.8191 9.72615 21.6528 9.93398 21.3203 10.3496L12 22ZM12 22L16.375 8.25M12 22L7.625 8.25M21.375 9.5L16.375 8.25M16.375 8.25L14.5 3.25M16.375 8.25H7.625M9.5 3.25L7.625 8.25M7.625 8.25L2.625 9.5" stroke="#A2A2A2" stroke-width="1.5" stroke-linecap="round"/>
</svg>
