<svg width="25" height="24" viewBox="0 0 25 24" fill="none" xmlns="http://www.w3.org/2000/svg">
<path d="M20.9638 8.01002L14.4138 2.77002C13.1338 1.75002 11.1338 1.74002 9.86375 2.76002L3.31375 8.01002C2.37375 8.76002 1.80375 10.26 2.00375 11.44L3.26375 18.98C3.55375 20.67 5.12375 22 6.83375 22H17.4338C19.1238 22 20.7238 20.64 21.0138 18.97L22.2738 11.43C22.4538 10.26 21.8838 8.76002 20.9638 8.01002ZM12.8838 18C12.8838 18.41 12.5438 18.75 12.1338 18.75C11.7238 18.75 11.3838 18.41 11.3838 18V15C11.3838 14.59 11.7238 14.25 12.1338 14.25C12.5438 14.25 12.8838 14.59 12.8838 15V18Z" fill="#A2A2A2"/>
</svg>
