<svg width="25" height="24" viewBox="0 0 25 24" fill="none" xmlns="http://www.w3.org/2000/svg">
<path d="M13.0268 10.87C12.9268 10.86 12.8068 10.86 12.6968 10.87C10.3168 10.79 8.42676 8.84 8.42676 6.44C8.42676 3.99 10.4068 2 12.8668 2C15.3168 2 17.3068 3.99 17.3068 6.44C17.2968 8.84 15.4068 10.79 13.0268 10.87Z" stroke="#A2A2A2" stroke-width="1.5" stroke-linecap="round" stroke-linejoin="round"/>
<path d="M8.02691 14.56C5.60691 16.18 5.60691 18.82 8.02691 20.43C10.7769 22.27 15.2869 22.27 18.0369 20.43C20.4569 18.81 20.4569 16.17 18.0369 14.56C15.2969 12.73 10.7869 12.73 8.02691 14.56Z" stroke="#A2A2A2" stroke-width="1.5" stroke-linecap="round" stroke-linejoin="round"/>
</svg>
